<svg id="Layer_1" data-name="Layer 1" xmlns="http://www.w3.org/2000/svg" viewBox="0 0 227.63 194.62"><defs><style>.cls-1{isolation:isolate;}</style></defs><g class="cls-1"><path d="M118.28,157.2a24.74,24.74,0,0,1-9.28-1.92l-1.24,1.44h-2.44l-3.52-8.4,2.08-1.16c2.32,3,7,7.08,13.56,7.08,4,0,7.24-2,7.24-4.72,0-4.16-5.92-5.24-11.72-7-5.56-1.64-11-3.92-11-10,0-5.11,5.24-8.07,11.16-8.07a20.11,20.11,0,0,1,7.88,1.6l1.2-1.4h2l3.4,7.63-1.88,1.16c-3.24-4-6.8-6-11.8-6-4,0-6.68,1.51-6.68,3.79,0,3.6,4.36,4.92,9.2,6.28,6.16,1.72,13.11,3.56,13.11,10.36C129.59,153,124.72,157.2,118.28,157.2Z" transform="translate(-1.68 -3.65)"/></g><g class="cls-1"><path d="M117.28,175.2a24.74,24.74,0,0,1-9.28-1.92l-1.24,1.44h-2.44l-3.52-8.4,2.08-1.16c2.32,3,7,7.08,13.56,7.08,4,0,7.24-2,7.24-4.72,0-4.16-5.92-5.24-11.72-7-5.56-1.64-11-3.92-11-10,0-5.11,5.24-8.07,11.16-8.07a20.11,20.11,0,0,1,7.88,1.6l1.2-1.4h2l3.4,7.63-1.88,1.16c-3.24-4-6.8-6-11.8-6-4,0-6.68,1.51-6.68,3.79,0,3.6,4.36,4.92,9.2,6.28,6.16,1.72,13.11,3.56,13.11,10.36C128.59,171,123.72,175.2,117.28,175.2Z" transform="translate(-1.68 -3.65)"/></g><path d="M177.9,109.94l.17,8.78-27.45.51v.51c12.81,6.76,25.35,19.26,25.66,35.8.45,24.43-24.78,42.09-58.66,42.71-35.4.66-57.88-16.87-58.3-39.52C59,141.17,71.26,128.34,83.81,121v-.51L56,121l-.16-8.78,47.88-.89.13,7c-15,7.28-27.82,21.13-27.5,38.31.3,15.66,14.44,33.09,41.51,32.58,26.88-.5,41.52-17.44,41.21-34.24-.3-16-13.83-31.06-29.09-37.14l-.13-7Z" transform="translate(-1.68 -3.65)"/><g class="cls-1"><g class="cls-1"><path d="M31.8,36.4a24.74,24.74,0,0,1-9.28-1.92l-1.24,1.44H18.84l-3.52-8.4,2.08-1.16c2.32,3,7,7.08,13.56,7.08,4,0,7.24-2,7.24-4.72,0-4.16-5.92-5.24-11.72-7-5.56-1.64-11-3.92-11-10,0-5.12,5.24-8.07,11.16-8.07a20.11,20.11,0,0,1,7.88,1.6l1.2-1.4h2l3.4,7.63-1.88,1.16c-3.24-4-6.8-6-11.8-6-4,0-6.68,1.51-6.68,3.79,0,3.6,4.36,4.92,9.2,6.28,6.16,1.72,13.12,3.56,13.12,10.36C43.12,32.2,38.24,36.4,31.8,36.4Z" transform="translate(-1.68 -3.65)"/></g><g class="cls-1"><path d="M68.36,35.6h-10V33.92C59.8,33.44,61,33,61,31V21.8c0-2.28-1.2-3.48-3.32-3.48a7.41,7.41,0,0,0-4.08,1.76V31.16c0,2.08,1.44,2.44,2.52,2.72V35.6H45.48V33.84c1.36-.36,3-.84,3-3V12.48c0-2.36-1.16-2.84-1.72-2.88l-1.24-.16V7.73a26.21,26.21,0,0,0,3-1.45,21.26,21.26,0,0,0,3-1.87h2V17.64a10.81,10.81,0,0,1,6.32-2.12c4,0,6,2.08,6,6V30.6a3,3,0,0,0,2.48,3.24Z" transform="translate(-1.68 -3.65)"/><path d="M89.44,29.52c-1.48,3.64-3.68,6.76-8.52,6.76-7,0-10.16-5.2-10.16-10.4s3.56-10.56,9.84-10.56c6,0,8.76,4.32,8.76,7.44,0,.6,0,.8-.44.8H76.2c0,.68-.08,1.36-.08,2.12,0,5.52,2,8.28,5.12,8.28,2.88,0,4.88-2.28,6-5.28Zm-6-7.84c0-1.16-.36-4.2-3-4.2-2,0-3.36,1.28-4,4.2Z" transform="translate(-1.68 -3.65)"/></g><g class="cls-1"><path d="M108,20c-1.48,0-2.28-.8-3.32-.8-1.24,0-3,1.64-3.84,3.4v8.68c0,2.08,1.68,2.44,2.76,2.72V35.6H92.76V33.92c1.36-.36,3-.84,3-3V24.24c0-2.36-1.16-2.84-1.72-2.92l-1.24-.16V19.4a25.71,25.71,0,0,0,3-1.4,21.94,21.94,0,0,0,3-1.92h2v3c1.6-1.8,3.76-3.56,6.36-3.56,2,0,2.92,1.32,2.92,2.28A2.13,2.13,0,0,1,108,20Z" transform="translate(-1.68 -3.65)"/></g><g class="cls-1"><path d="M145.83,17.8a4.21,4.21,0,0,0-3.67,3L136.68,35.6h-2.44l-5.32-13.44L124,35.6h-2.44l-6-15.08a3.85,3.85,0,0,0-3.32-2.68V16.08h10.4v1.68c-1.08.28-2.08.68-2.08,1.64a2.57,2.57,0,0,0,.2.8L124,28.6l3-8.52a2.88,2.88,0,0,0,.16-.76c0-1.36-1.8-1.44-2.24-1.48V16.08h10.4v1.68c-1.08.28-2.08.68-2.08,1.64a2.57,2.57,0,0,0,.2.8l3.28,8.4,2.68-7.88a3.15,3.15,0,0,0,.16-.8c0-1.12-1.08-1.84-1.88-2.12V16.08h8.11Z" transform="translate(-1.68 -3.65)"/><path d="M157.56,36.32c-6.6,0-10.4-4-10.4-9.84,0-6.4,4.16-11.16,10.48-11.16S168,20,168,26.16A10.14,10.14,0,0,1,157.56,36.32Zm0-19c-3,0-5.32,2.32-5.32,8.68s2.28,8.24,5.12,8.24,5.24-3,5.24-8.44S160.6,17.32,157.6,17.32Z" transform="translate(-1.68 -3.65)"/><path d="M181.16,36.32c-6.6,0-10.4-4-10.4-9.84,0-6.4,4.16-11.16,10.48-11.16S191.6,20,191.6,26.16A10.14,10.14,0,0,1,181.16,36.32Zm0-19c-3,0-5.32,2.32-5.32,8.68s2.28,8.24,5.12,8.24,5.24-3,5.24-8.44S184.2,17.32,181.2,17.32Z" transform="translate(-1.68 -3.65)"/><path d="M216.2,35.6h-7.6v-.88a8.05,8.05,0,0,1-4.72,1.36c-5.24,0-9.68-3.4-9.68-9.72s3.68-10.88,9.92-10.88a9.9,9.9,0,0,1,4.48,1V12.52c0-2.36-1.16-2.84-1.76-2.92l-1.2-.12V7.73a29.74,29.74,0,0,0,3-1.45,18,18,0,0,0,3-1.91h2V31.24c0,2.08,1.48,2.44,2.56,2.72Zm-7.6-16.16a3.53,3.53,0,0,0-3.24-2c-3.84,0-5.72,3.8-5.72,8.72s2.52,7.84,5,7.84a4.73,4.73,0,0,0,3.92-2.4Z" transform="translate(-1.68 -3.65)"/></g></g><g class="cls-1"><g class="cls-1"><path d="M18.16,78.23a24.74,24.74,0,0,1-9.28-1.92L7.64,77.75H5.2l-3.52-8.4,2.08-1.16c2.32,3,7,7.08,13.56,7.08,4,0,7.24-2,7.24-4.72,0-4.16-5.92-5.24-11.72-7-5.56-1.64-11-3.92-11-10,0-5.11,5.24-8.07,11.16-8.07a20.11,20.11,0,0,1,7.88,1.6l1.2-1.4h2l3.4,7.63-1.88,1.16c-3.24-4-6.8-6-11.8-6-4,0-6.68,1.51-6.68,3.79,0,3.6,4.36,4.92,9.2,6.28,6.16,1.72,13.12,3.56,13.12,10.36C29.48,74,24.6,78.23,18.16,78.23Z" transform="translate(-1.68 -3.65)"/></g><g class="cls-1"><path d="M44.68,77.31a8.13,8.13,0,0,1-3.6.8c-3.6,0-6.44-1.6-6.44-6.16V59.71H32.12V58.63a10.49,10.49,0,0,0,3.64-3.2,21.28,21.28,0,0,0,2.32-4.6h1.6v7H44.6v1.84H39.68v12.6c0,2.76,1.4,3.64,3.2,3.64a2.87,2.87,0,0,0,1.8-.56Z" transform="translate(-1.68 -3.65)"/></g><g class="cls-1"><path d="M65.4,71.35c-1.48,3.64-3.68,6.76-8.52,6.76-7,0-10.16-5.2-10.16-10.4s3.56-10.56,9.84-10.56c6,0,8.76,4.32,8.76,7.44,0,.6,0,.8-.44.8H52.16c0,.68-.08,1.36-.08,2.12,0,5.52,2,8.28,5.12,8.28,2.88,0,4.88-2.28,6-5.28Zm-6-7.84c0-1.16-.36-4.2-3-4.2-2,0-3.36,1.28-4,4.2Z" transform="translate(-1.68 -3.65)"/><path d="M88.64,76.55a4.57,4.57,0,0,1-3.36,1.28,4.85,4.85,0,0,1-4-1.6,9,9,0,0,1-6,2c-3.76,0-6.84-1.76-6.84-5.32,0-4.8,5.64-6.16,8.28-6.92,1.48-.44,2.92-.88,4-1.24V62.43c0-2.16-1.2-3.4-2.68-3.4s-2.32,1.08-2.88,2.4-1.28,2.36-2.64,2.36a2,2,0,0,1-2.2-2.12c0-2.16,3-4.52,7.68-4.52,4.52,0,7.8,2.28,7.8,5.92V73.55a2.29,2.29,0,0,0,2.88,2.08Zm-8-9.4c-2.84.12-7.12,2-7.12,5,0,2.28,1.24,3.52,3.28,3.52a3.71,3.71,0,0,0,3.84-3.56Z" transform="translate(-1.68 -3.65)"/><path d="M114.68,77.43H103.2V75.75c1-.2,2-.88,2-1.84a2,2,0,0,0-.56-1.2l-3.12-4L99.36,71v2.08c0,2.08,1.44,2.44,2.52,2.72v1.64H91.28V75.75c1.36-.36,3-.84,3-3V54.35c0-2.36-1.16-2.84-1.72-2.92l-1.24-.12V49.56a26.21,26.21,0,0,0,3-1.45,18,18,0,0,0,3-1.91h2v21l4.24-4.48a1.68,1.68,0,0,0,.52-1.08c0-1-1.52-1.8-2.72-2V57.91h10.8v1.68a5.28,5.28,0,0,0-4.2,2l-3.32,3.88L110.6,73a7.32,7.32,0,0,0,4.08,2.76Z" transform="translate(-1.68 -3.65)"/><path d="M139.83,77.43h-10V75.75c1.4-.48,2.56-.92,2.56-2.92v-9.2c0-2.28-1.2-3.48-3.32-3.48A7.41,7.41,0,0,0,125,61.91V73c0,2.08,1.44,2.44,2.52,2.72v1.72H117V75.67c1.36-.36,3-.84,3-3V54.31c0-2.36-1.16-2.84-1.72-2.88L117,51.27V49.56a26.21,26.21,0,0,0,3-1.45,21.26,21.26,0,0,0,3-1.87h2V59.47a10.81,10.81,0,0,1,6.32-2.12c4,0,6,2.08,6,6v9.08a3,3,0,0,0,2.47,3.24Z" transform="translate(-1.68 -3.65)"/><path d="M152.64,78.15c-6.6,0-10.4-4-10.4-9.84,0-6.4,4.16-11.16,10.48-11.16S163.08,61.83,163.08,68A10.14,10.14,0,0,1,152.64,78.15Zm0-19c-3,0-5.32,2.32-5.32,8.68s2.28,8.24,5.12,8.24,5.24-3,5.24-8.44S155.68,59.15,152.68,59.15Z" transform="translate(-1.68 -3.65)"/><path d="M187,77.43h-7.48V75.87A10.93,10.93,0,0,1,173.12,78c-4,0-6-2.08-6-6V63.11A1.19,1.19,0,0,0,166,62h-.6V60.43l6-2.92h.6v14.2c0,2.28,1.24,3.48,3.36,3.48a7.53,7.53,0,0,0,4.08-1.76V63.35A1.29,1.29,0,0,0,178,62h-.48V60.43l6.36-2.92h.6V73.35a2.23,2.23,0,0,0,1.76,2.16l.68.16Z" transform="translate(-1.68 -3.65)"/><path d="M199.4,78.23a8.39,8.39,0,0,1-5.2-1.4l-1.08.92h-1.88l-2.36-5.88,1.84-.84c1,1.4,4,4.92,8.36,4.92,2.68,0,4.6-1.28,4.6-2.84,0-2.64-4.08-3.08-7.88-4.08-3.28-.92-6.32-2.24-6.32-5.88s3.56-5.92,7.92-5.92a9.22,9.22,0,0,1,4.36,1.2l1.24-1h1.36l1.76,5-1.84.88c-1.6-2.2-3.76-3.88-6.56-3.88-2.2,0-3.88.76-3.88,2.16,0,2.24,3.16,2.76,6.4,3.56,3.56.84,7.28,2,7.28,6.2S203.68,78.23,199.4,78.23Z" transform="translate(-1.68 -3.65)"/><path d="M229.31,71.35c-1.48,3.64-3.68,6.76-8.51,6.76-7,0-10.16-5.2-10.16-10.4s3.56-10.56,9.84-10.56c6,0,8.75,4.32,8.75,7.44,0,.6,0,.8-.44.8H216.08c0,.68-.08,1.36-.08,2.12,0,5.52,2,8.28,5.12,8.28,2.88,0,4.88-2.28,6-5.28Zm-6-7.84c0-1.16-.36-4.2-3-4.2-2,0-3.36,1.28-4,4.2Z" transform="translate(-1.68 -3.65)"/></g></g></svg>