<svg id="Layer_1" data-name="Layer 1" xmlns="http://www.w3.org/2000/svg" viewBox="0 0 231.52 198.28"><defs><style>.cls-1,.cls-2,.cls-6{font-size:40px;font-family:BookmanJFPro-Roman, BookmanJFPro;}.cls-1,.cls-3{letter-spacing:0.02em;}.cls-2{letter-spacing:-0.01em;}.cls-4{letter-spacing:0.07em;}.cls-5{letter-spacing:0.02em;}.cls-6{letter-spacing:0em;}.cls-7{letter-spacing:-0.01em;}</style></defs><text class="cls-1" transform="translate(100.12 156.4)">S</text><text class="cls-1" transform="translate(99.12 174.4)">S</text><path d="M498.94,147.92l.17,8.78-27.45.51v.51c12.81,6.76,25.35,19.26,25.66,35.8.45,24.43-24.78,42.09-58.66,42.71-35.4.66-57.88-16.87-58.3-39.52C380,179.15,392.3,166.32,404.85,159v-.51L377,159l-.16-8.78,47.88-.89.13,7c-15,7.28-27.82,21.13-27.5,38.31.3,15.66,14.44,33.09,41.51,32.58,26.88-.5,41.52-17.44,41.21-34.24-.3-16-13.83-31.06-29.09-37.14l-.13-7Z" transform="translate(-321.04 -37.98)"/><text class="cls-2" transform="translate(13.64 35.6)">S<tspan class="cls-3" x="31" y="0">he</tspan><tspan class="cls-4" x="78" y="0">r</tspan><tspan class="cls-5" x="99.04" y="0">wood</tspan></text><text class="cls-6" transform="translate(0 77.43)">S<tspan class="cls-7" x="31.64" y="0">t</tspan><tspan class="cls-3" x="45.72" y="0">eakhouse</tspan></text></svg>